<svg xmlns="http://www.w3.org/2000/svg" width="174" height="44" viewBox="0 0 174 44" version="1.1"><path d="M 3 16.500 C 3 25.967, 3.009 26, 5.500 26 C 7.611 26, 8 25.533, 8 23 C 8 20.415, 8.370 20, 10.671 20 C 12.140 20, 14.165 19.255, 15.171 18.345 C 16.900 16.781, 17 16.838, 17 19.390 C 17 20.956, 18.078 23.169, 19.566 24.657 C 21.611 26.702, 22.754 27.099, 25.191 26.612 C 26.874 26.275, 29.094 26, 30.125 26 C 31.777 26, 32 25.180, 32 19.103 C 32 12.207, 32 12.207, 26.463 12.141 C 22.234 12.090, 20.462 12.538, 18.963 14.037 C 17.012 15.988, 17 15.982, 17 13.155 C 17 8.929, 14.233 7, 8.171 7 C 3 7, 3 7, 3 16.500 M 145.702 9.020 C 143.925 10.418, 143.161 11.948, 143.219 13.994 C 143.304 17.001, 146.155 21, 148.213 21 C 148.838 21, 148.336 19.922, 147.099 18.605 C 145.586 16.995, 145.217 15.984, 145.973 15.516 C 146.799 15.006, 146.787 14.448, 145.926 13.411 C 144.002 11.092, 146.602 8.909, 150.744 9.365 C 155.543 9.894, 157.220 12.852, 155.035 16.934 C 154.371 18.175, 153.296 18.588, 151.583 18.261 C 149.228 17.810, 149.176 17.661, 150.612 15.469 C 152.035 13.297, 152.005 13.186, 150.134 13.675 C 148.821 14.019, 148.344 14.732, 148.739 15.763 C 149.182 16.916, 148.966 17.103, 147.920 16.472 C 146.708 15.741, 146.701 15.864, 147.872 17.308 C 148.627 18.239, 149.827 19, 150.539 19 C 151.251 19, 152.030 19.563, 152.271 20.250 C 153.139 22.733, 157 17.912, 157 14.345 C 157 7.856, 150.860 4.962, 145.702 9.020 M 158.333 8.667 C 158.700 9.033, 159.300 9.033, 159.667 8.667 C 160.033 8.300, 159.733 8, 159 8 C 158.267 8, 157.967 8.300, 158.333 8.667 M 165 8.378 C 165 8.585, 165.787 9.373, 166.750 10.128 C 168.336 11.371, 168.371 11.336, 167.128 9.750 C 165.821 8.084, 165 7.555, 165 8.378 M 55.333 10.667 C 55.700 11.033, 56.300 11.033, 56.667 10.667 C 57.033 10.300, 56.733 10, 56 10 C 55.267 10, 54.967 10.300, 55.333 10.667 M 63.813 10.683 C 64.534 10.972, 65.397 10.936, 65.729 10.604 C 66.061 10.272, 65.471 10.036, 64.417 10.079 C 63.252 10.127, 63.015 10.364, 63.813 10.683 M 79.333 10.667 C 79.700 11.033, 80.300 11.033, 80.667 10.667 C 81.033 10.300, 80.733 10, 80 10 C 79.267 10, 78.967 10.300, 79.333 10.667 M 86.333 10.667 C 86.700 11.033, 87.300 11.033, 87.667 10.667 C 88.033 10.300, 87.733 10, 87 10 C 86.267 10, 85.967 10.300, 86.333 10.667 M 100 11.500 C 100 12.325, 100.177 13, 100.393 13 C 100.609 13, 101.045 12.325, 101.362 11.500 C 101.678 10.675, 101.501 10, 100.969 10 C 100.436 10, 100 10.675, 100 11.500 M 115.278 11.250 C 113.779 13.188, 112.836 15, 113.326 15 C 113.570 15, 114.507 13.875, 115.408 12.500 C 117.094 9.927, 117 9.024, 115.278 11.250 M 139.606 12.848 C 137.712 15.500, 137.712 15.500, 140.050 13.278 C 141.337 12.056, 142.189 10.862, 141.944 10.626 C 141.700 10.389, 140.648 11.389, 139.606 12.848 M 146.872 11.750 C 145.629 13.336, 145.664 13.371, 147.250 12.128 C 148.916 10.821, 149.445 10, 148.622 10 C 148.415 10, 147.627 10.787, 146.872 11.750 M 163 11 C 163 11.733, 163.300 12.033, 163.667 11.667 C 164.033 11.300, 164.033 10.700, 163.667 10.333 C 163.300 9.967, 163 10.267, 163 11 M 67 11.378 C 67 11.585, 67.787 12.373, 68.750 13.128 C 70.336 14.371, 70.371 14.336, 69.128 12.750 C 67.821 11.084, 67 10.555, 67 11.378 M 76.405 12.155 C 75.962 12.870, 76.130 13.038, 76.845 12.595 C 77.480 12.203, 78 11.684, 78 11.441 C 78 10.607, 77.117 11.002, 76.405 12.155 M 89.500 12 C 89.840 12.550, 90.343 13, 90.618 13 C 90.893 13, 90.840 12.550, 90.500 12 C 90.160 11.450, 89.657 11, 89.382 11 C 89.107 11, 89.160 11.450, 89.500 12 M 123 11.378 C 123 11.585, 123.787 12.373, 124.750 13.128 C 126.336 14.371, 126.371 14.336, 125.128 12.750 C 123.821 11.084, 123 10.555, 123 11.378 M 128 11.378 C 128 11.585, 128.787 12.373, 129.750 13.128 C 131.336 14.371, 131.371 14.336, 130.128 12.750 C 128.821 11.084, 128 10.555, 128 11.378 M 134.872 12.750 C 133.629 14.336, 133.664 14.371, 135.250 13.128 C 136.916 11.821, 137.445 11, 136.622 11 C 136.415 11, 135.627 11.787, 134.872 12.750 M 149.558 11.907 C 149.249 12.405, 149.898 12.578, 150.999 12.290 C 153.334 11.679, 153.629 11, 151.559 11 C 150.766 11, 149.866 11.408, 149.558 11.907 M 169 12 C 169 12.733, 169.300 13.033, 169.667 12.667 C 170.033 12.300, 170.033 11.700, 169.667 11.333 C 169.300 10.967, 169 11.267, 169 12 M 8 14.073 C 8 16.636, 11.310 16.345, 11.812 13.739 C 12.043 12.539, 11.504 12, 10.073 12 C 8.642 12, 8 12.642, 8 14.073 M 35.153 17.250 C 38.233 24.866, 38.553 27, 36.617 27 C 35.559 27, 35 27.864, 35 29.500 C 35 32.238, 35.639 32.468, 39.339 31.061 C 41.216 30.348, 42.549 28.200, 44.904 22.094 C 46.607 17.678, 48 13.600, 48 13.032 C 48 12.465, 46.864 12, 45.475 12 C 43.469 12, 42.827 12.617, 42.350 15 C 42.020 16.650, 41.400 18, 40.973 18 C 40.545 18, 39.725 16.650, 39.150 15 C 38.358 12.730, 37.487 12, 35.567 12 C 33.029 12, 33.029 12, 35.153 17.250 M 50.459 13.067 C 50.096 13.653, 50.014 14.348, 50.276 14.610 C 50.538 14.872, 51.019 14.392, 51.345 13.543 C 52.021 11.781, 51.445 11.471, 50.459 13.067 M 103.500 15 C 104.353 16.650, 105.276 18, 105.551 18 C 105.826 18, 105.353 16.650, 104.500 15 C 103.647 13.350, 102.724 12, 102.449 12 C 102.174 12, 102.647 13.350, 103.500 15 M 55.036 14.456 C 53.715 16.049, 54.422 18.009, 56.309 17.985 C 57.032 17.975, 56.910 17.575, 56 16.966 C 54.702 16.097, 54.761 15.763, 56.441 14.481 C 57.509 13.666, 57.901 13, 57.314 13 C 56.726 13, 55.701 13.655, 55.036 14.456 M 117.079 14.583 C 117.127 15.748, 117.364 15.985, 117.683 15.188 C 117.972 14.466, 117.936 13.603, 117.604 13.271 C 117.272 12.939, 117.036 13.529, 117.079 14.583 M 79.333 14.667 C 79.700 15.033, 80.300 15.033, 80.667 14.667 C 81.033 14.300, 80.733 14, 80 14 C 79.267 14, 78.967 14.300, 79.333 14.667 M 92.564 15.293 C 92.940 16.279, 93.499 16.834, 93.807 16.526 C 94.115 16.219, 93.808 15.412, 93.124 14.733 C 92.136 13.753, 92.022 13.868, 92.564 15.293 M 165.405 15.750 C 167.485 18.207, 169 18.663, 169 16.833 C 169 16.192, 168.699 15.968, 168.331 16.336 C 167.963 16.703, 166.726 16.216, 165.581 15.252 C 163.502 13.501, 163.502 13.502, 165.405 15.750 M 65.500 16 C 65.840 16.550, 66.343 17, 66.618 17 C 66.893 17, 66.840 16.550, 66.500 16 C 66.160 15.450, 65.657 15, 65.382 15 C 65.107 15, 65.160 15.450, 65.500 16 M 99 16 C 99 16.733, 99.300 17.033, 99.667 16.667 C 100.033 16.300, 100.033 15.700, 99.667 15.333 C 99.300 14.967, 99 15.267, 99 16 M 126 15.378 C 126 15.585, 126.787 16.373, 127.750 17.128 C 129.336 18.371, 129.371 18.336, 128.128 16.750 C 126.821 15.084, 126 14.555, 126 15.378 M 131.613 16.183 C 131.902 16.650, 132.557 16.774, 133.069 16.457 C 134.377 15.649, 134.230 15.333, 132.544 15.333 C 131.743 15.333, 131.324 15.716, 131.613 16.183 M 22.390 17.426 C 21.462 19.845, 22.708 22, 25.035 22 C 26.732 22, 27.072 21.476, 26.816 19.259 C 26.461 16.183, 23.360 14.899, 22.390 17.426 M 136.405 17.155 C 135.962 17.870, 136.130 18.038, 136.845 17.595 C 137.480 17.203, 138 16.684, 138 16.441 C 138 15.607, 137.117 16.002, 136.405 17.155 M 72 18 C 72 18.733, 72.300 19.033, 72.667 18.667 C 73.033 18.300, 73.033 17.700, 72.667 17.333 C 72.300 16.967, 72 17.267, 72 18 M 118.079 18.583 C 118.127 19.748, 118.364 19.985, 118.683 19.188 C 118.972 18.466, 118.936 17.603, 118.604 17.271 C 118.272 16.939, 118.036 17.529, 118.079 18.583 M 50.500 19 C 50.840 19.550, 51.343 20, 51.618 20 C 51.893 20, 51.840 19.550, 51.500 19 C 51.160 18.450, 50.657 18, 50.382 18 C 50.107 18, 50.160 18.450, 50.500 19 M 66 18.393 C 66 18.609, 66.698 19.054, 67.552 19.382 C 68.442 19.723, 68.843 19.555, 68.493 18.989 C 67.906 18.038, 66 17.583, 66 18.393 M 76.079 19.583 C 76.127 20.748, 76.364 20.985, 76.683 20.188 C 76.972 19.466, 76.936 18.603, 76.604 18.271 C 76.272 17.939, 76.036 18.529, 76.079 19.583 M 109.985 20.028 C 109.388 21.143, 108.403 21.749, 107.795 21.373 C 107.129 20.962, 106.974 21.149, 107.405 21.845 C 108.515 23.642, 109.577 23.223, 110.818 20.500 C 112.180 17.511, 111.530 17.142, 109.985 20.028 M 159.609 20.093 C 156.427 22.596, 155.572 25.332, 157.088 28.164 C 157.978 29.827, 157.992 30.503, 157.143 30.786 C 156.515 30.995, 156 31.634, 156 32.206 C 156 32.854, 156.541 32.796, 157.436 32.053 C 158.502 31.168, 159.404 31.146, 160.936 31.966 C 162.314 32.703, 163 32.726, 163 32.035 C 163 31.466, 162.523 31, 161.941 31 C 161.359 31, 161.203 30.480, 161.595 29.845 C 162.022 29.156, 161.871 28.961, 161.223 29.362 C 159.455 30.455, 156.920 26.018, 158.077 23.855 C 158.618 22.846, 159.588 22.128, 160.234 22.260 C 160.880 22.392, 161.430 21.825, 161.455 21 C 161.480 20.166, 162.388 19.520, 163.500 19.545 C 164.600 19.570, 165.387 20.133, 165.250 20.795 C 165.113 21.458, 165.492 21.887, 166.093 21.750 C 166.694 21.613, 167.661 22.218, 168.240 23.095 C 169.449 24.924, 168.480 30, 166.922 30 C 166.350 30, 166.203 29.480, 166.595 28.845 C 167.041 28.124, 166.869 27.963, 166.138 28.415 C 165.494 28.813, 165.226 29.557, 165.543 30.069 C 165.859 30.581, 165.641 31, 165.059 31 C 164.477 31, 164 31.450, 164 32 C 164 33.570, 165.429 33.180, 167.811 30.961 C 170.135 28.796, 170.744 23.698, 169 21 C 168.467 20.175, 168.017 19.950, 168 20.500 C 167.983 21.050, 167.606 20.927, 167.161 20.227 C 165.805 18.090, 162.236 18.027, 159.609 20.093 M 98 20 C 98 20.733, 98.300 21.033, 98.667 20.667 C 99.033 20.300, 99.033 19.700, 98.667 19.333 C 98.300 18.967, 98 19.267, 98 20 M 102 20.500 C 102 21.325, 102.177 22, 102.393 22 C 102.609 22, 103.045 21.325, 103.362 20.500 C 103.678 19.675, 103.501 19, 102.969 19 C 102.436 19, 102 19.675, 102 20.500 M 113.405 20.155 C 112.962 20.870, 113.130 21.038, 113.845 20.595 C 114.480 20.203, 115 19.684, 115 19.441 C 115 18.607, 114.117 19.002, 113.405 20.155 M 128.100 21.295 C 126.835 23.402, 126.857 23.423, 128.579 21.774 C 129.570 20.824, 130.166 19.832, 129.903 19.569 C 129.640 19.306, 128.829 20.083, 128.100 21.295 M 135 19.941 C 135 20.459, 135.445 21.157, 135.989 21.493 C 136.555 21.843, 136.723 21.442, 136.382 20.552 C 135.717 18.820, 135 18.503, 135 19.941 M 72 21 C 72 21.733, 72.300 22.033, 72.667 21.667 C 73.033 21.300, 73.033 20.700, 72.667 20.333 C 72.300 19.967, 72 20.267, 72 21 M 62.813 21.683 C 63.534 21.972, 64.397 21.936, 64.729 21.604 C 65.061 21.272, 64.471 21.036, 63.417 21.079 C 62.252 21.127, 62.015 21.364, 62.813 21.683 M 115.079 22.583 C 115.127 23.748, 115.364 23.985, 115.683 23.188 C 115.972 22.466, 115.936 21.603, 115.604 21.271 C 115.272 20.939, 115.036 21.529, 115.079 22.583 M 119.079 22.583 C 119.127 23.748, 119.364 23.985, 119.683 23.188 C 119.972 22.466, 119.936 21.603, 119.604 21.271 C 119.272 20.939, 119.036 21.529, 119.079 22.583 M 78.226 23.579 C 79.176 24.570, 80.168 25.166, 80.431 24.903 C 80.694 24.640, 79.917 23.829, 78.705 23.100 C 76.598 21.835, 76.577 21.857, 78.226 23.579 M 147.814 24.781 C 149.291 26.311, 150.689 27.434, 150.921 27.277 C 151.497 26.886, 146.838 22, 145.889 22 C 145.470 22, 146.336 23.251, 147.814 24.781 M 55.226 24.579 C 56.176 25.570, 57.168 26.166, 57.431 25.903 C 57.694 25.640, 56.917 24.829, 55.705 24.100 C 53.598 22.835, 53.577 22.857, 55.226 24.579 M 87 24 C 86.099 24.582, 85.975 24.975, 86.691 24.985 C 87.346 24.993, 88.160 24.550, 88.500 24 C 89.267 22.758, 88.921 22.758, 87 24 M 92.405 24.155 C 91.962 24.870, 92.130 25.038, 92.845 24.595 C 93.480 24.203, 94 23.684, 94 23.441 C 94 22.607, 93.117 23.002, 92.405 24.155 M 97.079 24.583 C 97.127 25.748, 97.364 25.985, 97.683 25.188 C 97.972 24.466, 97.936 23.603, 97.604 23.271 C 97.272 22.939, 97.036 23.529, 97.079 24.583 M 101.079 24.583 C 101.127 25.748, 101.364 25.985, 101.683 25.188 C 101.972 24.466, 101.936 23.603, 101.604 23.271 C 101.272 22.939, 101.036 23.529, 101.079 24.583 M 130.405 25.250 C 128.506 27.493, 128.506 27.495, 130.556 25.770 C 132.505 24.131, 132.712 24.131, 134.523 25.770 C 136.399 27.469, 136.400 27.460, 134.562 25.250 C 133.532 24.012, 132.605 23, 132.500 23 C 132.395 23, 131.453 24.012, 130.405 25.250 M 137 23.378 C 137 23.585, 137.787 24.373, 138.750 25.128 C 140.336 26.371, 140.371 26.336, 139.128 24.750 C 137.821 23.084, 137 22.555, 137 23.378 M 64 25 C 63.099 25.582, 62.975 25.975, 63.691 25.985 C 64.346 25.993, 65.160 25.550, 65.500 25 C 66.267 23.758, 65.921 23.758, 64 25 M 69.100 26.295 C 67.835 28.402, 67.857 28.423, 69.579 26.774 C 70.570 25.824, 71.166 24.832, 70.903 24.569 C 70.640 24.306, 69.829 25.083, 69.100 26.295 M 124.872 25.750 C 123.629 27.336, 123.664 27.371, 125.250 26.128 C 126.916 24.821, 127.445 24, 126.622 24 C 126.415 24, 125.627 24.788, 124.872 25.750 M 161.100 25.705 C 161.829 26.917, 162.640 27.694, 162.903 27.431 C 163.166 27.168, 162.570 26.176, 161.579 25.226 C 159.857 23.577, 159.835 23.598, 161.100 25.705 M 50 25.378 C 50 25.585, 50.788 26.373, 51.750 27.128 C 53.336 28.371, 53.371 28.336, 52.128 26.750 C 50.821 25.084, 50 24.555, 50 25.378 M 74.500 26 C 74.840 26.550, 75.343 27, 75.618 27 C 75.893 27, 75.840 26.550, 75.500 26 C 75.160 25.450, 74.657 25, 74.382 25 C 74.107 25, 74.160 25.450, 74.500 26 M 120.079 26.583 C 120.127 27.748, 120.364 27.985, 120.683 27.188 C 120.972 26.466, 120.936 25.603, 120.604 25.271 C 120.272 24.939, 120.036 25.529, 120.079 26.583 M 144 26 C 144 26.733, 144.300 27.033, 144.667 26.667 C 145.033 26.300, 145.033 25.700, 144.667 25.333 C 144.300 24.967, 144 25.267, 144 26 M 109.490 27.016 C 109.144 27.575, 108.373 27.731, 107.776 27.362 C 107.129 26.961, 106.979 27.156, 107.405 27.845 C 108.390 29.440, 109.675 29.290, 110.362 27.500 C 111.014 25.799, 110.439 25.480, 109.490 27.016 M 116.079 27.583 C 116.127 28.748, 116.364 28.985, 116.683 28.188 C 116.972 27.466, 116.936 26.603, 116.604 26.271 C 116.272 25.939, 116.036 26.529, 116.079 27.583 M 77.733 28.124 C 78.412 28.808, 79.219 29.115, 79.526 28.807 C 79.834 28.499, 79.279 27.940, 78.293 27.564 C 76.868 27.022, 76.753 27.136, 77.733 28.124 M 88 28 C 87.099 28.582, 86.975 28.975, 87.691 28.985 C 88.346 28.993, 89.160 28.550, 89.500 28 C 90.267 26.758, 89.921 26.758, 88 28 M 96 28 C 96 28.733, 96.300 29.033, 96.667 28.667 C 97.033 28.300, 97.033 27.700, 96.667 27.333 C 96.300 26.967, 96 27.267, 96 28 M 100 28 C 100 28.733, 100.300 29.033, 100.667 28.667 C 101.033 28.300, 101.033 27.700, 100.667 27.333 C 100.300 26.967, 100 27.267, 100 28 M 140.500 28 C 140.840 28.550, 141.343 29, 141.618 29 C 141.893 29, 141.840 28.550, 141.500 28 C 141.160 27.450, 140.657 27, 140.382 27 C 140.107 27, 140.160 27.450, 140.500 28 M 65.333 28.667 C 65.700 29.033, 66.300 29.033, 66.667 28.667 C 67.033 28.300, 66.733 28, 66 28 C 65.267 28, 64.967 28.300, 65.333 28.667 M 144.083 28.283 C 144.313 28.439, 145.400 29.226, 146.500 30.033 C 148.350 31.390, 148.397 31.369, 147.128 29.750 C 146.373 28.788, 145.285 28, 144.711 28 C 144.137 28, 143.854 28.127, 144.083 28.283" stroke="none" fill="#989ba4" fill-rule="evenodd"/><path d="M 156.395 8.170 C 155.908 8.958, 156.219 9.130, 157.348 8.697 C 159.535 7.857, 164.212 10.004, 163.611 11.572 C 163.061 13.003, 167.336 17.330, 168.324 16.342 C 168.696 15.971, 168.997 14.729, 168.993 13.583 C 168.979 9.411, 158.429 4.878, 156.395 8.170 M 148.637 11.071 C 147.208 12.195, 146.142 13.652, 146.269 14.308 C 146.635 16.195, 149.871 18.183, 151.769 17.686 C 153.112 17.334, 153.019 17.206, 151.357 17.116 C 148.739 16.974, 147.246 14.007, 149.781 13.985 C 151.234 13.972, 151.271 13.825, 150.024 13.036 C 148.817 12.273, 148.984 11.941, 150.945 11.216 C 152.295 10.717, 152.882 10.045, 152.289 9.678 C 151.709 9.320, 150.066 9.947, 148.637 11.071 M 54.345 11.397 C 50.402 13.180, 49.193 16.451, 51.524 19.027 C 52.767 20.400, 54.891 20.990, 59.364 21.205 C 64.735 21.463, 65.500 21.749, 65.500 23.500 C 65.500 25.166, 64.734 25.550, 60.912 25.798 C 57.706 26.007, 55.938 25.630, 55.040 24.548 C 53.647 22.869, 50 22.420, 50 23.927 C 50 24.438, 51.186 25.788, 52.635 26.927 C 57.154 30.482, 67.653 29.386, 69.936 25.120 C 72.198 20.892, 68.168 18, 60.012 18 C 54.833 18, 53.088 16.804, 54.966 14.540 C 56.536 12.650, 63.348 13.100, 65.726 15.252 C 68.028 17.335, 70 17.521, 70 15.655 C 70 11.476, 60.115 8.787, 54.345 11.397 M 78.123 11.709 C 71.404 15.019, 71.009 23.205, 77.381 27.090 C 83.149 30.608, 89.570 29.049, 93.147 23.263 C 95.208 19.927, 95.212 19.810, 93.399 16.442 C 91.549 13.007, 86.810 9.980, 83.349 10.023 C 82.332 10.035, 79.981 10.794, 78.123 11.709 M 125.748 13.750 C 130.347 19.664, 130.359 19.759, 127.070 23.912 C 123.503 28.416, 123.358 29, 125.812 29 C 126.809 29, 128.683 27.568, 129.977 25.817 C 132.331 22.634, 132.331 22.634, 135.065 25.909 C 136.605 27.753, 138.520 29.035, 139.446 28.843 C 140.812 28.558, 140.548 27.762, 137.906 24.176 C 134.719 19.853, 134.719 19.853, 137.859 15.397 C 139.587 12.947, 141 10.730, 141 10.471 C 141 9.674, 137.002 9.951, 136.964 10.750 C 136.944 11.162, 135.895 12.763, 134.632 14.306 C 132.335 17.113, 132.335 17.113, 129.918 13.563 C 128.314 11.208, 126.715 10.011, 125.166 10.007 C 122.832 10, 122.832 10, 125.748 13.750 M 100.128 14.584 C 98.804 19.579, 97.056 27.275, 97.024 28.250 C 97.011 28.663, 97.654 29, 98.453 29 C 99.763 29, 101.980 23.522, 101.994 20.250 C 102.006 17.698, 103.667 19.134, 105.813 23.552 C 107.029 26.055, 108.475 27.824, 109.026 27.484 C 109.578 27.143, 110.972 25.015, 112.125 22.755 C 114.436 18.225, 115.239 18.692, 116.417 25.250 C 116.900 27.940, 117.598 29, 118.886 29 C 120.590 29, 120.575 28.548, 118.590 20.015 C 116.539 11.198, 116.468 11.073, 114.797 13.265 C 113.860 14.494, 112.329 17.188, 111.395 19.250 C 110.461 21.312, 109.341 23, 108.906 23 C 108.471 23, 106.552 20.225, 104.641 16.834 C 101.166 10.668, 101.166 10.668, 100.128 14.584 M 77.750 16.217 C 75.599 18.908, 75.569 19.939, 77.557 22.777 C 79.668 25.791, 87.401 25.987, 88.965 23.066 C 91.619 18.106, 88.990 13.992, 83.179 14.013 C 80.604 14.023, 78.975 14.684, 77.750 16.217 M 162.882 18.691 C 162.816 19.136, 162.802 19.794, 162.850 20.154 C 162.897 20.514, 162.264 21.366, 161.443 22.047 C 160.127 23.140, 160.155 23.514, 161.685 25.204 C 162.781 26.416, 163.044 27.376, 162.399 27.811 C 161.721 28.268, 161.813 29.341, 162.674 31 C 163.387 32.375, 163.977 32.860, 163.985 32.079 C 163.993 31.297, 164.696 29.888, 165.547 28.948 C 166.947 27.401, 166.932 27.075, 165.385 25.528 C 164.059 24.201, 163.960 23.643, 164.945 23.034 C 165.856 22.471, 165.898 22.055, 165.090 21.556 C 164.473 21.174, 164.207 20.474, 164.500 20 C 164.793 19.526, 164.575 18.856, 164.016 18.510 C 163.457 18.165, 162.947 18.246, 162.882 18.691 M 149.813 20.683 C 150.534 20.972, 151.397 20.936, 151.729 20.604 C 152.061 20.272, 151.471 20.036, 150.417 20.079 C 149.252 20.127, 149.015 20.364, 149.813 20.683 M 144.778 25.381 C 144.412 27.296, 145.115 28.276, 148.362 30.381 C 152.418 33.012, 156 33.803, 156 32.070 C 156 31.558, 154.999 30.995, 153.775 30.820 C 152.551 30.644, 151.071 29.535, 150.486 28.357 C 149.096 25.557, 146.952 23, 145.994 23 C 145.576 23, 145.028 24.072, 144.778 25.381" stroke="none" fill="#095788" fill-rule="evenodd"/></svg>